<?xml version="1.0" encoding="utf-8"?>
<!-- Generator: Adobe Illustrator 26.0.3, SVG Export Plug-In . SVG Version: 6.00 Build 0)  -->
<svg version="1.1" id="Layer_1" xmlns="http://www.w3.org/2000/svg" xmlns:xlink="http://www.w3.org/1999/xlink" x="0px" y="0px"
	 viewBox="0 0 45 45" style="enable-background:new 0 0 45 45;" xml:space="preserve">
<style type="text/css">
	.st0{fill:#00AEF0;}
	.st1{fill:#F89420;}
	.st2{fill:#264E72;}
	.st3{fill:#FFFFFF;}
	.st4{fill:#F59221;}
	.st5{fill:#616266;}
	.st6{fill:#B1B3B5;}
</style>
<g>
	<path class="st4" d="M8.8,32.8c-1.2,0-2.2-1-2.2-2.2v-6.8c0-1.2,1-2.2,2.2-2.2h0c1.2,0,2.2,1,2.2,2.2l0,6.8
		C11.1,31.8,10.1,32.8,8.8,32.8L8.8,32.8z"/>
	<path class="st2" d="M18,32.8c-1.2,0-2.2-1-2.2-2.2l0-15.6c0-1.2,1-2.2,2.2-2.2s2.2,1,2.2,2.2l0,15.6C20.3,31.8,19.3,32.8,18,32.8"
		/>
	<path class="st4" d="M27.2,32.8c-1.2,0-2.2-1-2.2-2.2l0-13.4c0-1.2,1-2.2,2.2-2.2c1.2,0,2.2,1,2.2,2.2l0,13.4
		C29.4,31.8,28.4,32.8,27.2,32.8L27.2,32.8z"/>
	<path class="st2" d="M36.4,32.8c-1.2,0-2.2-1-2.2-2.2V6c0-1.2,1-2.2,2.2-2.2c1.2,0,2.2,1,2.2,2.2l0,24.6
		C38.6,31.8,37.6,32.8,36.4,32.8"/>
	<path class="st2" d="M6.4,39c0-1.2,1.1-2.2,2.5-2.2l27.3,0c1.4,0,2.5,1,2.5,2.2c0,1.2-1.1,2.2-2.5,2.2l-27.3,0
		C7.5,41.3,6.4,40.3,6.4,39"/>
</g>
</svg>
