<?xml version="1.0" encoding="utf-8"?>
<!-- Generator: Adobe Illustrator 26.0.3, SVG Export Plug-In . SVG Version: 6.00 Build 0)  -->
<svg version="1.1" id="Layer_1" xmlns="http://www.w3.org/2000/svg" xmlns:xlink="http://www.w3.org/1999/xlink" x="0px" y="0px"
	 viewBox="0 0 45 45" style="enable-background:new 0 0 45 45;" xml:space="preserve">
<style type="text/css">
	.st0{fill:#00AEF0;}
	.st1{fill:#F89420;}
	.st2{fill:#226eb2;}
	.st3{fill:#FFFFFF;}
	.st4{fill:#F59221;}
	.st5{fill:#616266;}
	.st6{fill:#B1B3B5;}
</style>
<g>
	<path class="st2" d="M25.5,37.6h-22c-1,0-1.8-0.8-1.8-1.8V9.3c0-1,0.8-1.8,1.8-1.8c1,0,1.8,0.8,1.8,1.8v24.6h20.2
		c1,0,1.8,0.8,1.8,1.8C27.3,36.7,26.5,37.6,25.5,37.6"/>
	<path class="st4" d="M12.2,29.9c-0.5,0-0.9-0.2-1.3-0.5c-0.7-0.7-0.7-1.9,0-2.6l8-8c0.7-0.7,1.9-0.7,2.6,0l4.1,4.1L40.2,8.2
		c0.7-0.7,1.9-0.7,2.6,0c0.7,0.7,0.7,1.9,0,2.6L26.9,26.7c-0.7,0.7-1.9,0.7-2.6,0l-4.1-4.1l-6.7,6.7C13.1,29.7,12.6,29.9,12.2,29.9"
		/>
	<path class="st4" d="M41.5,18.9c-1,0-1.8-0.8-1.8-1.8V9.5c0-1,0.8-1.8,1.8-1.8c1,0,1.8,0.8,1.8,1.8v7.6
		C43.4,18.1,42.5,18.9,41.5,18.9"/>
	<path class="st4" d="M33.9,11.3c-1,0-1.8-0.8-1.8-1.8c0-1,0.8-1.8,1.8-1.8l7.6,0c1,0,1.8,0.8,1.8,1.8c0,1-0.8,1.8-1.8,1.8
		L33.9,11.3z"/>
</g>
</svg>
