<?xml version="1.0" encoding="utf-8"?>
<!-- Generator: Adobe Illustrator 26.0.3, SVG Export Plug-In . SVG Version: 6.00 Build 0)  -->
<svg version="1.1" id="Layer_1" xmlns="http://www.w3.org/2000/svg" xmlns:xlink="http://www.w3.org/1999/xlink" x="0px" y="0px"
	 viewBox="0 0 45 45" style="enable-background:new 0 0 45 45;" xml:space="preserve">
<style type="text/css">
	.st0{fill:#00AEF0;}
	.st1{fill:#F89420;}
	.st2{fill:#264E72;}
	.st3{fill:#FFFFFF;}
	.st4{fill:#F59221;}
	.st5{fill:#616266;}
	.st6{fill:#B1B3B5;}
</style>
<g>
	<path class="st2" d="M37.4,36H25.5c-0.9,0-1.6-0.7-1.6-1.6s0.7-1.6,1.6-1.6h11.9c0.9,0,1.6,0.7,1.6,1.6S38.3,36,37.4,36"/>
	<path class="st2" d="M37.4,42H25.5c-0.9,0-1.6-0.7-1.6-1.6c0-0.9,0.7-1.6,1.6-1.6h11.9c0.9,0,1.6,0.7,1.6,1.6
		C39.1,41.3,38.3,42,37.4,42"/>
	<path class="st2" d="M19.5,24.1H7.6c-0.9,0-1.6-0.7-1.6-1.6c0-0.9,0.7-1.6,1.6-1.6h11.9c0.9,0,1.6,0.7,1.6,1.6
		C21.2,23.4,20.4,24.1,19.5,24.1"/>
	<path class="st2" d="M19.5,30.1H7.6c-0.9,0-1.6-0.7-1.6-1.6s0.7-1.6,1.6-1.6h11.9c0.9,0,1.6,0.7,1.6,1.6S20.4,30.1,19.5,30.1"/>
	<path class="st2" d="M19.5,36H7.6c-0.9,0-1.6-0.7-1.6-1.6s0.7-1.6,1.6-1.6h11.9c0.9,0,1.6,0.7,1.6,1.6S20.4,36,19.5,36"/>
	<path class="st2" d="M19.5,42H7.6c-0.9,0-1.6-0.7-1.6-1.6c0-0.9,0.7-1.6,1.6-1.6h11.9c0.9,0,1.6,0.7,1.6,1.6
		C21.2,41.3,20.4,42,19.5,42"/>
	<path class="st4" d="M13.5,18.1c-0.9,0-1.6-0.7-1.6-1.6v-2c0-0.9,0.7-1.6,1.6-1.6h0c0.9,0,1.6,0.7,1.6,1.6l0,2
		C15.2,17.4,14.4,18.1,13.5,18.1"/>
	<path class="st4" d="M9.7,16.1c-0.9,0-1.6-0.7-1.6-1.6s0.7-1.6,1.6-1.6l5.2,0h0c0,0,0,0,0,0c0.4,0,0.8-0.4,0.8-0.8
		c0-0.5-0.4-0.8-0.8-0.8l-2.6,0c-2.3,0-4.1-1.8-4.1-4.1c0-2.3,1.8-4.1,4.1-4.1c0,0,0,0,0.1,0l4.4,0h0c0.9,0,1.6,0.7,1.6,1.6
		c0,0.9-0.7,1.6-1.6,1.6l-4.4,0h0c0,0,0,0,0,0c-0.4,0-0.8,0.4-0.8,0.8c0,0.5,0.4,0.8,0.8,0.8l2.6,0c2.3,0,4.1,1.8,4.1,4.1
		c0,2.3-1.8,4.1-4.1,4.1c0,0,0,0-0.1,0L9.7,16.1z"/>
	<path class="st4" d="M31.5,30.1c-0.9,0-1.6-0.7-1.6-1.6l0-2c0-0.9,0.7-1.6,1.6-1.6h0c0.9,0,1.6,0.7,1.6,1.6l0,2
		C33.1,29.3,32.4,30.1,31.5,30.1"/>
	<path class="st4" d="M31.5,18.2c-0.9,0-1.6-0.7-1.6-1.6l0-2c0-0.9,0.7-1.6,1.6-1.6h0c0.9,0,1.6,0.7,1.6,1.6l0,2
		C33.1,17.5,32.4,18.2,31.5,18.2"/>
	<path class="st4" d="M27.6,28.1c-0.9,0-1.6-0.7-1.6-1.6c0-0.9,0.7-1.6,1.6-1.6l5.2,0h0c0,0,0,0,0,0c0.4,0,0.8-0.4,0.8-0.8
		c0-0.5-0.4-0.8-0.8-0.8l-2.6,0c-2.3,0-4.1-1.8-4.1-4.1c0-2.3,1.8-4.1,4.1-4.1c0,0,0,0,0.1,0l4.4,0h0c0.9,0,1.6,0.7,1.6,1.6
		c0,0.9-0.7,1.6-1.6,1.6l-4.4,0c0,0,0,0,0,0c-0.4,0-0.8,0.4-0.8,0.8c0,0.5,0.4,0.8,0.8,0.8l2.6,0c2.3,0,4.1,1.8,4.1,4.1
		c0,2.3-1.8,4.1-4.1,4.1c0,0,0,0-0.1,0L27.6,28.1L27.6,28.1z"/>
</g>
</svg>
