<?xml version="1.0" encoding="utf-8"?>
<!-- Generator: Adobe Illustrator 26.0.3, SVG Export Plug-In . SVG Version: 6.00 Build 0)  -->
<svg version="1.1" id="Layer_1" xmlns="http://www.w3.org/2000/svg" xmlns:xlink="http://www.w3.org/1999/xlink" x="0px" y="0px"
	 viewBox="0 0 45 45" style="enable-background:new 0 0 45 45;" xml:space="preserve">
<style type="text/css">
	.st0{fill:#00AEF0;}
	.st1{fill:#F89420;}
	.st2{fill:#264E72;}
	.st3{fill:#FFFFFF;}
	.st4{fill:#F59221;}
	.st5{fill:#616266;}
	.st6{fill:#B1B3B5;}
	.st7{fill:#E6E6E6;}
	.st8{fill:#E2E2E2;}
</style>
<g>
	<path class="st2" d="M42.1,35.3c-0.4-0.5-0.9-0.6-1.3-0.6c-0.6,0-1.1,0-1.7,0c-0.6,0-1.3,0-1.9,0h0c-0.1,0-0.1,0-0.1,0
		c0,0,0-0.1,0-0.2c0-3.9,0-7.8,0-11.7c0-0.1,0-0.1,0-0.1c0,0,0.1,0,0.2,0c0.5,0,1.1,0,1.6,0l0.4,0c0.9,0,1.3-0.3,1.3-1.3
		c0-2.8,0-5.7,0-8.5c0-0.9-0.4-1.2-1.3-1.2c-3.3,0-6.5,0-9.8,0l-0.1,0c-0.2,0-0.5,0-0.7,0.1c-0.1,0.1-0.2,0.1-0.5-0.1
		c-1.6-0.8-3.2-1.7-4.7-2.5L19.4,7c-1.8-0.9-3.5-1.9-5.3-2.8L11.9,3h-0.5l-0.1,0.1c-0.5,0.3-0.7,0.8-1,1.2c-0.1,0.2-0.2,0.4-0.3,0.5
		C9.7,5.4,9.8,6,10.4,6.4l0.5,0.3c0.4,0.3,0.8,0.6,1.3,0.9c0.3,0.2,0.4,0.3,0.4,0.7c0,2,0,4,0,6.1l0,2.1c0,0.3,0,0.5,0,0.6
		c-0.1,0-0.3,0.1-0.6,0.1c-0.1,0-0.2,0-0.3,0.1c-0.5,0.2-0.8,0.5-0.7,1c0,0.5,0.4,0.8,0.9,0.9c0.2,0,0.4,0,0.6,0c0.1,0,0.1,0,0.1,0
		c0,0,0,0.1,0,0.1c0,0.5,0,0.9,0,1.4l0,0.3c0,0.4,0,0.7,0.3,1c0.2,0.2,0.6,0.3,1,0.3c0.3,0,0.5,0.1,0.6,0.2c0.4,0.4,0.5,1,0.1,1.4
		c-0.2,0.2-0.4,0.3-0.6,0.4c-0.3,0-0.6-0.1-0.8-0.3c-0.8-0.7-1.3-0.4-1.6-0.1c-0.3,0.4-0.4,1,0.3,1.6c0.9,0.8,2.2,1,3.2,0.6
		c1.1-0.5,1.9-1.7,1.8-2.8c-0.1-1.3-0.8-2.3-1.9-2.7c-0.4-0.1-0.4-0.2-0.4-0.7c0-0.2,0-0.5,0-0.5c0.1,0,0.3-0.1,0.6-0.1
		c0.6-0.1,1-0.4,1-1c0-0.5-0.3-0.9-0.9-1c-0.2,0-0.4,0-0.5,0c0,0-0.1,0-0.1,0c0,0-0.1,0-0.1,0c0,0,0-0.1,0-0.2c0-1.6,0-3.3,0-4.9
		l0-2.8l4.4,3c3,2.1,6.1,4.1,9.1,6.2c0.2,0.1,0.2,0.2,0.2,0.4c0,0.9,0,1.8,0,2.8c0,0.8,0.4,1.2,1.2,1.2l0.4,0c0.5,0,1,0,1.6,0
		c0.2,0,0.3,0,0.3,0c0,0,0,0.1,0,0.3c0,2.8,0,5.5,0,8.3l0,2.9c0,0.2,0,0.3,0,0.4c-0.1,0-0.3,0-0.4,0h-3.9c-2.8,0-5.5,0-8.3,0
		c-1,0-1.4,0.4-1.4,1.4c0,1.5,0,3,0,4.5c0,0.9,0.4,1.3,1.3,1.3l7.5,0c4.8,0,9.6,0,14.5,0h0c0.3,0,0.8-0.1,1.2-0.5l0.1-0.1L42.1,35.3
		L42.1,35.3z M30.2,13.8c0-0.1,0-0.2,0-0.2c0,0,0,0,0.2,0c2.6,0,5.3,0,7.9,0c0.1,0,0.2,0,0.2,0c0,0,0,0,0,0.2c0,2.2,0,4.5,0,6.7
		c0,0.1,0,0.1,0,0.1c0,0,0,0-0.2,0c-1,0-1.9,0-2.9,0l-1.1,0l-1.1,0c-0.9,0-1.9,0-2.8,0c-0.1,0-0.2,0-0.2,0c0,0,0,0,0,0
		c0,0,0-0.1,0-0.2C30.2,18.3,30.2,16.1,30.2,13.8 M33.7,22.9c0-0.2,0-0.2,0-0.2c0,0,0.1,0,0.3,0c0.5,0,0.9,0,1,0.1
		c0.1,0.1,0.1,0.5,0.1,1.1l0,2.5c0,2.7,0,5.3,0,8c0,0.2,0,0.3,0,0.3c0,0,0,0-0.3,0c-0.5,0-0.9,0-1-0.1c-0.1-0.1-0.1-0.5-0.1-1l0-6.5
		C33.7,25.7,33.7,24.3,33.7,22.9 M19.6,37c0-0.3,0-0.2,0-0.2c0,0,0.1,0,0.2,0h0c3.3,0,6.5,0,9.8,0l10,0c0.1,0,0.3,0,0.4,0
		c0,0.1,0,0.3,0,0.4l0,0.8c0,0.6,0,1.2,0,1.8c0,0.2,0,0.2,0,0.2c0,0-0.1,0-0.2,0c-1.7,0-3.4,0-5.1,0c-0.8,0-1.6,0-2.4,0l-12.2,0
		c-0.1,0-0.3,0-0.4,0c0-0.1,0-0.3,0-0.4l0-0.8C19.7,38.2,19.7,37.6,19.6,37 M28.2,15c0,0.1,0,0.1,0,0.2l0,0.3c0,0.2,0,0.4,0,0.6
		c-0.6-0.4-1.1-0.8-1.7-1.2L14,6.4c1.9,1,3.8,2,5.7,3l4,2.1c1.3,0.7,2.6,1.4,3.9,2c0.5,0.3,0.7,0.5,0.6,1
		C28.2,14.7,28.2,14.9,28.2,15"/>
	<path class="st4" d="M11.8,29.7L11.8,29.7c-0.5,0-1,0.3-1,1.2l0,0.1c0,0.3,0,0.6,0,0.9c0,0.1,0,0.1,0,0.1c0,0-0.1,0-0.1,0
		c-0.3,0-0.7,0-1,0l-0.4,0c-0.1,0-0.3,0-0.4,0c0-0.1,0-0.2,0-0.4l0-1.2c0-0.9,0-1.8,0-2.7c0-0.6-0.4-1-0.9-1c-0.6,0-1,0.3-1.1,0.9
		c0,0.3,0,0.5,0,0.8c0,0.1,0,0.1,0,0.1c0,0,0,0-0.1,0c-0.5,0-1,0-1.6,0c0,0,0,0,0,0c-0.1,0-0.1,0-0.1,0c0,0,0-0.1,0-0.2
		c0-0.7,0-1.4,0-2.2l0-0.8l0-0.3c0-0.3,0-0.5,0-0.8c-0.1-0.6-0.4-1-1-1h0c-0.6,0-1,0.4-1,1c0,0.1,0,0.3,0,0.4l0,0.1l0,7.7l0,8
		c0,1.1,0.4,1.4,1.4,1.4c1.2,0,2.3,0,3.5,0c1.2,0,2.3,0,3.5,0c1.1,0,1.5-0.4,1.5-1.5c0-2.5,0-5,0-7.5v-0.2c0-0.6,0-1.3,0-1.9
		C12.8,30.2,12.4,29.7,11.8,29.7 M6.7,39.9C6.7,40,6.2,40,5.7,40c-0.2,0-0.3,0-0.4,0c-0.1,0-0.3,0-0.4,0c0-0.1,0-0.2,0-0.4l0-0.6
		c0-0.4,0-0.9,0.1-1c0.1-0.1,0.5-0.1,0.9-0.1c0.2,0,0.3,0,0.5,0c0.2,0,0.3,0,0.4,0c0,0.1,0,0.3,0,0.5c0,0.1,0,0.3,0,0.4
		C6.8,39.3,6.8,39.8,6.7,39.9 M6.3,34.1c0.2,0,0.4,0,0.5,0c0,0.1,0,0.3,0,0.5c0,0.1,0,0.3,0,0.5v0.4c0,0.2,0,0.4,0,0.5
		c-0.1,0-0.2,0-0.4,0c-0.1,0-0.2,0-0.4,0c0,0-0.1,0-0.1,0c-0.4,0-0.9,0-1-0.1c-0.1-0.1-0.1-0.5-0.1-0.9c0-0.2,0-0.3,0-0.4
		c0-0.2,0-0.3,0-0.4c0.1,0,0.3,0,0.4,0l0.4,0C6,34.1,6.2,34.1,6.3,34.1 M6.8,31.1c0,0.2,0,0.3,0,0.5c0,0.2,0,0.4,0,0.5
		c-0.1,0-0.3,0-0.4,0c-0.1,0-0.2,0-0.3,0c-0.1,0-0.2,0-0.3,0c-0.4,0-0.8,0-0.9-0.1c-0.1-0.1-0.1-0.5-0.1-0.8l0-0.2
		c0-0.1,0-0.3,0-0.4c0.1,0,0.2,0,0.3,0l0.3,0c0.1,0,0.3,0,0.4,0c0.3,0,0.7,0,0.9,0c0,0.1,0,0.2,0,0.4V31.1z M8.8,35
		c0-0.4,0-0.8,0.1-0.8c0.1-0.1,0.5-0.1,0.9-0.1c0.4,0,0.8,0,0.9,0.1c0.1,0.1,0.1,0.5,0.1,0.9c0,0.4,0,0.8-0.1,0.8
		C10.7,36,10.3,36,9.9,36H9.8c-0.4,0-0.8,0-0.9-0.1C8.8,35.8,8.8,35.4,8.8,35 M9.8,37.9c0.4,0,0.8,0,0.9,0.1
		c0.1,0.1,0.1,0.5,0.1,0.9c0,0.5,0,0.9-0.1,1c-0.1,0.1-0.5,0.1-1,0.1c-0.4,0-0.8,0-0.8,0c-0.1-0.1-0.1-0.5-0.1-0.8v-0.2
		c0-0.4,0-0.9,0.1-0.9C9,37.9,9.4,37.9,9.8,37.9"/>
</g>
</svg>
