<?xml version="1.0" encoding="utf-8"?>
<!-- Generator: Adobe Illustrator 26.0.3, SVG Export Plug-In . SVG Version: 6.00 Build 0)  -->
<svg version="1.1" id="Layer_1" xmlns="http://www.w3.org/2000/svg" xmlns:xlink="http://www.w3.org/1999/xlink" x="0px" y="0px"
	 viewBox="0 0 45 45" style="enable-background:new 0 0 45 45;" xml:space="preserve">
<style type="text/css">
	.st0{fill:#00AEF0;}
	.st1{fill:#F89420;}
	.st2{fill:#264E72;}
	.st3{fill:#FFFFFF;}
	.st4{fill:#F59221;}
	.st5{fill:#616266;}
	.st6{fill:#B1B3B5;}
</style>
<g>
	<path class="st2" d="M22.5,23c-0.9,0-1.6-0.7-1.6-1.6l0-2.4c0-0.9,0.7-1.6,1.6-1.6c0.9,0,1.6,0.7,1.6,1.6v2.4
		C24.1,22.3,23.4,23,22.5,23L22.5,23z"/>
	<path class="st2" d="M22.5,35.2c-0.9,0-1.6-0.7-1.6-1.6l0-4.7c0-0.9,0.7-1.6,1.6-1.6c0.9,0,1.6,0.7,1.6,1.6v4.7
		C24.1,34.5,23.4,35.2,22.5,35.2"/>
	<path class="st2" d="M23.5,30.5h-3.9c-0.9,0-1.6-0.7-1.6-1.6c0-0.9,0.7-1.6,1.6-1.6h3.9c0.2,0,0.3-0.1,0.3-0.3
		c0-0.2-0.1-0.3-0.3-0.3l-1.9,0c-1.9,0-3.4-1.5-3.4-3.4c0-1.9,1.5-3.4,3.4-3.4c0,0,0.1,0,0.1,0l3.3,0h0c0.9,0,1.6,0.7,1.6,1.6
		c0,0.9-0.7,1.6-1.6,1.6l-3.3,0c0,0,0,0,0,0c-0.1,0-0.3,0.1-0.3,0.3c0,0.2,0.1,0.3,0.3,0.3l1.9,0c1.9,0,3.4,1.5,3.4,3.4
		C27,29,25.4,30.5,23.5,30.5"/>
	<path class="st4" d="M10.8,42c-0.3,0-0.7-0.1-0.9-0.3c-0.5-0.4-0.7-0.9-0.6-1.5L11.4,28l-8.8-8.6c-0.4-0.4-0.6-1-0.4-1.6
		c0.2-0.6,0.7-1,1.3-1.1l12.2-1.8l5.5-11.1C21.4,3.3,21.9,3,22.5,3c0.6,0,1.1,0.3,1.4,0.9l5.5,11.1l12.2,1.8
		c0.6,0.1,1.1,0.5,1.3,1.1c0.2,0.6,0,1.2-0.4,1.6L33.6,28l2.1,12c0,0.1,0.1,0.3,0.1,0.5c0,0.9-0.7,1.6-1.6,1.6c0,0,0,0,0,0
		c-0.2,0-0.5-0.1-0.7-0.2l-10.9-5.7l-10.9,5.7C11.3,42,11.1,42,10.8,42 M22.5,32.7c0.3,0,0.5,0.1,0.7,0.2l8.8,4.6l-1.7-9.8
		c-0.1-0.5,0.1-1,0.5-1.4l7.2-7l-9.9-1.4c-0.5-0.1-1-0.4-1.2-0.9l-4.4-9l-4.4,9c-0.2,0.5-0.7,0.8-1.2,0.9L7,19.4l7.2,7
		c0.4,0.4,0.5,0.9,0.5,1.4l-1.7,9.8l8.8-4.6C22,32.8,22.2,32.7,22.5,32.7"/>
</g>
</svg>
